<svg width="1102" height="848" viewBox="0 0 1102 848" fill="none" xmlns="http://www.w3.org/2000/svg">
<path d="M908.107 360.521C908.107 360.521 962.151 365.874 989.527 399.38C989.527 399.38 1018.48 360.568 1070.45 361.37C1083.15 346.048 1091.24 327.434 1093.77 307.695C1096.3 287.956 1093.17 267.904 1084.75 249.873C1076.33 231.843 1062.96 216.575 1046.19 205.849C1029.43 195.123 1009.97 189.38 990.065 189.287C970.165 189.195 950.647 194.757 933.785 205.327C916.923 215.897 903.411 231.039 894.821 248.99C886.231 266.942 882.917 286.964 885.265 306.726C887.613 326.488 895.526 345.176 908.084 360.615L908.107 360.521Z" fill="#8B5CF6"/>
<path opacity="0.5" d="M908.107 360.521C908.107 360.521 962.151 365.874 989.527 399.38C989.527 399.38 1018.48 360.568 1070.45 361.37C1083.15 346.048 1091.24 327.434 1093.77 307.695C1096.3 287.956 1093.17 267.904 1084.75 249.873C1076.33 231.843 1062.96 216.575 1046.19 205.849C1029.43 195.123 1009.97 189.38 990.065 189.287C970.165 189.195 950.647 194.757 933.785 205.327C916.923 215.897 903.411 231.039 894.821 248.99C886.231 266.942 882.917 286.964 885.265 306.726C887.613 326.488 895.526 345.176 908.084 360.615L908.107 360.521Z" fill="white"/>
<path d="M987.712 196.692L985.896 546.939H995.022L987.712 196.692Z" fill="#B8B8B8"/>
<path d="M990.47 389.17C990.47 389.17 1008.7 356.324 1041.54 346.279C1041.54 346.279 1006.88 354.508 989.668 382.78L990.47 389.17Z" fill="#B8B8B8"/>
<path d="M990.47 296.126C990.47 296.126 1008.7 263.28 1041.54 253.235C1041.54 253.235 1006.88 261.441 989.668 289.736L990.47 296.126Z" fill="#B8B8B8"/>
<path d="M990.47 342.601C990.47 342.601 1008.7 309.755 1041.54 299.71C1041.54 299.71 1006.88 307.939 989.668 336.211L990.47 342.601Z" fill="#B8B8B8"/>
<path d="M987.758 319.823C987.758 319.823 970.144 287.001 938.453 276.956C938.453 276.956 971.912 285.161 988.63 313.457L987.758 319.823Z" fill="#B8B8B8"/>
<path d="M987.758 365.449C987.758 365.449 970.144 332.603 938.453 322.582C938.453 322.582 971.912 330.787 988.63 359.059L987.758 365.449Z" fill="#B8B8B8"/>
<path d="M23.5761 360.521C23.5761 360.521 77.62 365.874 104.996 399.38C104.996 399.38 133.951 360.568 185.92 361.37C198.62 346.048 206.707 327.434 209.238 307.695C211.77 287.956 208.642 267.904 200.22 249.873C191.797 231.843 178.426 216.575 161.663 205.849C144.9 195.123 125.435 189.38 105.534 189.287C85.6335 189.195 66.1159 194.757 49.254 205.327C32.392 215.897 18.8795 231.039 10.2895 248.99C1.69959 266.942 -1.61426 286.964 0.733806 306.726C3.08187 326.488 10.9953 345.176 23.5526 360.615L23.5761 360.521Z" fill="#8B5CF6"/>
<path opacity="0.5" d="M23.5761 360.521C23.5761 360.521 77.62 365.874 104.996 399.38C104.996 399.38 133.951 360.568 185.92 361.37C198.62 346.048 206.707 327.434 209.238 307.695C211.77 287.956 208.642 267.904 200.22 249.873C191.797 231.843 178.426 216.575 161.663 205.849C144.9 195.123 125.435 189.38 105.534 189.287C85.6335 189.195 66.1159 194.757 49.254 205.327C32.392 215.897 18.8795 231.039 10.2895 248.99C1.69959 266.942 -1.61426 286.964 0.733806 306.726C3.08187 326.488 10.9953 345.176 23.5526 360.615L23.5761 360.521Z" fill="white"/>
<path d="M103.228 196.692L101.389 546.939H110.514L103.228 196.692Z" fill="#B8B8B8"/>
<path d="M105.962 389.17C105.962 389.17 124.189 356.324 157.035 346.279C157.035 346.279 122.373 354.508 105.16 382.78L105.962 389.17Z" fill="#B8B8B8"/>
<path d="M105.962 296.126C105.962 296.126 124.189 263.28 157.035 253.235C157.035 253.235 122.373 261.441 105.16 289.736L105.962 296.126Z" fill="#B8B8B8"/>
<path d="M105.962 342.601C105.962 342.601 124.189 309.755 157.035 299.71C157.035 299.71 122.373 307.939 105.16 336.211L105.962 342.601Z" fill="#B8B8B8"/>
<path d="M103.252 319.823C103.252 319.823 85.6379 287.001 53.9473 276.956C53.9473 276.956 87.4063 285.161 104.124 313.457L103.252 319.823Z" fill="#B8B8B8"/>
<path d="M103.252 365.449C103.252 365.449 85.6379 332.603 53.9473 322.582C53.9473 322.582 87.4063 330.787 104.124 359.059L103.252 365.449Z" fill="#B8B8B8"/>
<path d="M688.512 394.475C688.512 394.475 732.747 398.838 755.148 426.26C755.148 426.26 778.845 394.499 821.382 395.136C831.772 382.594 838.385 367.359 840.452 351.204C842.519 335.049 839.955 318.64 833.059 303.886C826.162 289.132 815.216 276.641 801.496 267.866C787.775 259.091 771.845 254.395 755.559 254.322C739.273 254.25 723.301 258.805 709.503 267.458C695.705 276.111 684.649 288.504 677.622 303.197C670.595 317.889 667.885 334.275 669.809 350.447C671.733 366.619 678.211 381.912 688.489 394.546L688.512 394.475Z" fill="#8B5CF6"/>
<path opacity="0.5" d="M688.512 394.475C688.512 394.475 732.747 398.838 755.148 426.26C755.148 426.26 778.845 394.499 821.382 395.136C831.772 382.594 838.385 367.359 840.452 351.204C842.519 335.049 839.955 318.64 833.059 303.886C826.162 289.132 815.216 276.641 801.496 267.866C787.775 259.091 771.845 254.395 755.559 254.322C739.273 254.25 723.301 258.805 709.503 267.458C695.705 276.111 684.649 288.504 677.622 303.197C670.595 317.889 667.885 334.275 669.809 350.447C671.733 366.619 678.211 381.912 688.489 394.546L688.512 394.475Z" fill="white"/>
<path d="M753.687 260.262L752.201 546.939H759.676L753.687 260.262Z" fill="#B8B8B8"/>
<path d="M755.926 417.819C755.926 417.819 770.875 390.938 797.732 382.709C797.732 382.709 769.437 389.429 755.289 412.584L755.926 417.819Z" fill="#B8B8B8"/>
<path d="M755.926 341.658C755.926 341.658 770.875 314.777 797.732 306.572C797.732 306.572 769.437 313.292 755.289 336.423L755.926 341.658Z" fill="#B8B8B8"/>
<path d="M755.926 379.738C755.926 379.738 770.875 352.858 797.732 344.629C797.732 344.629 769.437 351.349 755.289 374.504L755.926 379.738Z" fill="#B8B8B8"/>
<path d="M753.709 361.063C753.709 361.063 739.302 334.183 713.365 325.977C713.365 325.977 740.741 332.697 754.44 355.829L753.709 361.063Z" fill="#B8B8B8"/>
<path d="M753.709 398.39C753.709 398.39 739.302 371.509 713.365 363.303C713.365 363.303 740.741 370.024 754.44 393.178L753.709 398.39Z" fill="#B8B8B8"/>
<path d="M260.524 394.475C260.524 394.475 304.759 398.838 327.159 426.26C327.159 426.26 350.739 394.499 393.394 395.136C403.783 382.594 410.397 367.359 412.464 351.204C414.531 335.049 411.967 318.64 405.07 303.886C398.174 289.132 387.228 276.641 373.508 267.866C359.787 259.091 343.857 254.395 327.57 254.322C311.284 254.25 295.313 258.805 281.515 267.458C267.717 276.111 256.661 288.504 249.634 303.197C242.606 317.889 239.897 334.275 241.821 350.447C243.745 366.619 250.223 381.912 260.501 394.546L260.524 394.475Z" fill="#8B5CF6"/>
<path opacity="0.5" d="M260.524 394.475C260.524 394.475 304.759 398.838 327.159 426.26C327.159 426.26 350.739 394.499 393.394 395.136C403.783 382.594 410.397 367.359 412.464 351.204C414.531 335.049 411.967 318.64 405.07 303.886C398.174 289.132 387.228 276.641 373.508 267.866C359.787 259.091 343.857 254.395 327.57 254.322C311.284 254.25 295.313 258.805 281.515 267.458C267.717 276.111 256.661 288.504 249.634 303.197C242.606 317.889 239.897 334.275 241.821 350.447C243.745 366.619 250.223 381.912 260.501 394.546L260.524 394.475Z" fill="white"/>
<path d="M325.698 260.262L324.213 546.939H331.688L325.698 260.262Z" fill="#B8B8B8"/>
<path d="M328.057 417.819C328.057 417.819 343.006 390.938 369.863 382.709C369.863 382.709 341.568 389.429 327.42 412.584L328.057 417.819Z" fill="#B8B8B8"/>
<path d="M328.057 341.658C328.057 341.658 343.006 314.777 369.863 306.572C369.863 306.572 341.568 313.292 327.42 336.423L328.057 341.658Z" fill="#B8B8B8"/>
<path d="M328.057 379.738C328.057 379.738 343.006 352.858 369.863 344.629C369.863 344.629 341.568 351.349 327.42 374.504L328.057 379.738Z" fill="#B8B8B8"/>
<path d="M325.698 361.063C325.698 361.063 311.314 334.183 285.377 326.095C285.377 326.095 312.753 332.815 326.452 355.947L325.698 361.063Z" fill="#B8B8B8"/>
<path d="M325.698 398.39C325.698 398.39 311.291 371.509 285.354 363.303C285.354 363.303 312.729 370.024 326.429 393.178L325.698 398.39Z" fill="#B8B8B8"/>
<path d="M39.8457 548.189H1057.39" stroke="#263238" stroke-width="1.04742" stroke-miterlimit="10"/>
<path d="M402.355 106.147C402.355 87.9204 411.976 77.4983 429.542 77.4983C447.109 77.4983 456.753 87.9204 456.753 106.147V165.426C456.753 183.652 447.133 194.075 429.542 194.075C411.952 194.075 402.355 183.652 402.355 165.426V106.147ZM420.276 166.557C420.276 174.692 423.86 177.781 429.542 177.781C435.225 177.781 438.833 174.692 438.833 166.557V105.015C438.833 96.8805 435.249 93.7916 429.542 93.7916C423.836 93.7916 420.276 96.8805 420.276 105.015V166.557Z" fill="#263238"/>
<path d="M470.264 106.147C470.264 87.9204 479.86 77.4983 497.451 77.4983C515.041 77.4983 524.638 87.9204 524.638 106.147V165.426C524.638 183.652 515.017 194.075 497.451 194.075C479.884 194.075 470.264 183.652 470.264 165.426V106.147ZM488.16 166.557C488.16 174.692 491.744 177.781 497.451 177.781C503.157 177.781 506.717 174.692 506.717 166.557V105.015C506.717 96.8805 503.133 93.7916 497.451 93.7916C491.768 93.7916 488.16 96.8805 488.16 105.015V166.557Z" fill="#263238"/>
<path d="M592.688 106.973V121.78C592.688 140.031 583.893 150.076 565.997 150.076H557.532V192.896H539.611V78.8188H565.997C583.893 78.8188 592.688 88.7458 592.688 106.973ZM557.532 95.1829V133.759H565.997C571.679 133.759 574.768 131.165 574.768 123.03V105.935C574.768 97.7766 571.679 95.1829 565.997 95.1829H557.532Z" fill="#263238"/>
<path d="M629.33 77.4983C646.731 77.4983 655.691 87.9204 655.691 106.147V109.731H638.761V105.015C638.761 96.8805 635.507 93.7916 629.801 93.7916C624.095 93.7916 620.841 96.8805 620.841 105.015C620.841 128.453 655.856 132.863 655.856 165.426C655.856 183.652 646.731 194.075 629.165 194.075C611.598 194.075 602.449 183.652 602.449 165.426V158.352H619.379V166.487C619.379 174.622 622.963 177.569 628.669 177.569C634.376 177.569 637.936 174.622 637.936 166.487C637.936 143.049 602.944 138.64 602.944 106.076C602.944 87.9439 611.905 77.4983 629.33 77.4983Z" fill="#263238"/>
<path d="M671.821 167.524L669.463 126.355V78.8188H687.383V126.355L685.025 167.524H671.821ZM687.124 175.518V192.778H669.958V175.518H687.124Z" fill="#263238"/>
<path d="M363.709 793.367C372.103 793.367 375.687 798.342 375.687 806.43V812.843C375.687 821.308 371.726 825.741 363.261 825.741H357.979V846.798H352.037V793.367H363.709ZM363.261 820.389C367.67 820.389 369.816 818.337 369.816 813.315V806.241C369.816 801.36 368.047 798.908 363.709 798.908H357.979V820.507L363.261 820.389Z" fill="#263238"/>
<path d="M387.147 836.022L385.072 846.798H379.578L389.812 793.367H398.442L408.675 846.798H402.709L400.658 836.022H387.147ZM387.902 830.929H399.809L393.773 800.04L387.902 830.929Z" fill="#263238"/>
<path d="M438.432 806.265V810.839H432.773V805.958C432.773 801.242 430.863 798.271 426.524 798.271C422.186 798.271 420.276 801.148 420.276 805.958V834.253C420.276 838.969 422.256 841.964 426.524 841.964C430.792 841.964 432.773 839.064 432.773 834.253V823.619H427.279V818.267H438.432V833.994C438.432 842.082 434.612 847.411 426.383 847.411C418.154 847.411 414.381 842.082 414.381 833.994V806.265C414.381 798.177 418.201 792.848 426.383 792.848C434.565 792.848 438.432 798.177 438.432 806.265Z" fill="#263238"/>
<path d="M464.605 817.041V822.369H451.565V841.374H467.576V846.798H445.6V793.367H467.576V798.79H451.565V817.041H464.605Z" fill="#263238"/>
<path d="M493.229 846.798H487.9V793.367H495.469L507.825 831.99V793.367H513.107V846.798H506.905L493.253 803.6L493.229 846.798Z" fill="#263238"/>
<path d="M520.252 806.265C520.252 798.106 524.284 792.848 532.466 792.848C540.648 792.848 544.751 798.106 544.751 806.265V833.9C544.751 841.987 540.695 847.316 532.466 847.316C524.237 847.316 520.252 841.987 520.252 833.9V806.265ZM526.123 834.206C526.123 839.087 528.198 841.917 532.466 841.917C536.734 841.917 538.785 839.087 538.785 834.206V805.911C538.785 801.195 536.805 798.224 532.466 798.224C528.127 798.224 526.123 801.101 526.123 805.911V834.206Z" fill="#263238"/>
<path d="M559.7 846.798V798.79H549.867V793.367H575.498V798.79H565.665V846.798H559.7Z" fill="#263238"/>
<path d="M612.754 818.243V823.619H600.469V846.751H594.504V793.367H615.725V798.79H600.469V818.243H612.754Z" fill="#263238"/>
<path d="M621.525 806.265C621.525 798.106 625.581 792.848 633.74 792.848C641.898 792.848 646.024 798.106 646.024 806.265V833.9C646.024 841.987 641.992 847.316 633.74 847.316C625.487 847.316 621.525 841.987 621.525 833.9V806.265ZM627.42 834.206C627.42 839.087 629.472 841.917 633.74 841.917C638.007 841.917 640.082 839.087 640.082 834.206V805.911C640.082 801.195 638.102 798.224 633.74 798.224C629.377 798.224 627.42 801.101 627.42 805.911V834.206Z" fill="#263238"/>
<path d="M658.852 834.206C658.852 838.922 660.762 841.917 665.1 841.917C669.439 841.917 671.302 839.016 671.302 834.206V793.367H676.866V833.9C676.866 841.987 673.117 847.411 664.888 847.411C656.659 847.411 652.98 841.987 652.98 833.9V793.367H658.852V834.206Z" fill="#263238"/>
<path d="M689.529 846.798H684.105V793.367H691.651L704.006 831.99V793.367H709.288V846.798H703.205L689.529 803.6V846.798Z" fill="#263238"/>
<path d="M729.518 793.367C737.841 793.367 741.661 798.413 741.661 806.642V833.593C741.661 841.752 737.841 846.798 729.518 846.798H717.115V793.367H729.518ZM729.518 841.374C733.786 841.374 735.861 838.71 735.861 833.829V806.336C735.861 801.455 733.786 798.79 729.447 798.79H723.034V841.374H729.518Z" fill="#263238"/>
<path opacity="0.3" d="M317.658 661.983C317.658 669.057 274.202 674.692 220.559 674.692C166.916 674.692 123.459 669.009 123.459 661.983C123.459 654.956 166.939 649.273 220.559 649.273C274.178 649.273 317.658 654.98 317.658 661.983Z" fill="black"/>
<path opacity="0.3" d="M520.936 661.983C520.936 669.057 477.455 674.692 423.836 674.692C370.217 674.692 326.736 669.009 326.736 661.983C326.736 654.956 370.217 649.273 423.836 649.273C477.455 649.273 520.936 654.98 520.936 661.983Z" fill="black"/>
<path opacity="0.3" d="M790.211 661.983C790.211 669.057 746.754 674.692 693.135 674.692C639.515 674.692 596.035 669.009 596.035 661.983C596.035 654.956 639.492 649.273 693.135 649.273C746.778 649.273 790.211 654.98 790.211 661.983Z" fill="black"/>
<path opacity="0.3" d="M1015.16 661.983C1015.16 669.057 971.677 674.692 918.057 674.692C864.438 674.692 820.863 669.009 820.863 661.983C820.863 654.956 864.344 649.273 917.963 649.273C971.582 649.273 1015.16 654.98 1015.16 661.983Z" fill="black"/>
<path d="M703.627 290.184C703.627 290.184 699.642 306.689 699.642 309.472C699.639 311.193 699.449 312.908 699.076 314.588C699.076 314.588 690.564 324.798 691.695 327.628C693.071 329.828 695.041 331.594 697.378 332.721C697.378 332.721 701.905 349.226 706.456 350.311C711.13 351.184 715.856 351.751 720.604 352.009L722.301 365.614L744.985 362.219L739.326 341.799L741.684 324.209C741.684 324.209 745.645 316.852 741.684 304.944C737.722 293.037 729.21 292.471 723.528 292.471C716.859 292.049 710.217 291.285 703.627 290.184Z" fill="white" stroke="#263238" stroke-width="1.04742" stroke-linecap="round" stroke-linejoin="round"/>
<path d="M713.837 281.695C713.837 281.695 693.983 281.106 694.549 286.222C695.115 291.339 715.535 298.012 715.535 298.012C715.535 298.012 708.72 302.539 712.116 307.09C715.511 311.641 723.457 315.602 723.457 315.602C723.457 315.602 721.099 325.246 724.613 325.812C728.126 326.378 730.272 321.261 730.838 319.564C731.404 317.866 737.652 318.432 739.35 322.959C740.31 325.312 740.883 327.804 741.047 330.339C741.047 330.339 747.862 309.92 748.994 300.842C750.125 291.764 724.613 281.695 713.837 281.695Z" fill="#263238" stroke="#263238" stroke-width="1.04742" stroke-linecap="round" stroke-linejoin="round"/>
<path d="M726.404 326.095C726.404 326.095 733.266 311.004 737.369 318.432C741.471 325.859 739.727 333.593 735.695 334.419C731.662 335.244 728.291 336.046 728.291 336.046" fill="white"/>
<path d="M726.404 326.095C726.404 326.095 733.266 311.004 737.369 318.432C741.471 325.859 739.727 333.593 735.695 334.419C731.662 335.244 728.291 336.046 728.291 336.046" stroke="#263238" stroke-width="1.04742" stroke-linecap="round" stroke-linejoin="round"/>
<path d="M698.51 483.582C697.402 484.879 679.223 523.855 676.959 536.895C674.695 549.934 659.958 627.651 659.369 631.047C658.779 634.442 627.631 641.257 625.344 641.823C623.057 642.388 627.702 648.637 634.422 650.335C641.142 652.032 660.524 659.979 665.075 655.428C669.626 650.877 675.851 625.364 677.548 622.535C679.246 619.705 711.173 544.487 711.173 544.487C711.173 544.487 727.537 508.387 730.932 504.968C734.327 501.549 726.9 486.435 724.047 481.884C721.194 477.333 706.457 474.504 698.51 483.582Z" fill="#263238" stroke="#263238" stroke-width="1.04742" stroke-linecap="round" stroke-linejoin="round"/>
<path d="M695.116 484.077C695.116 484.077 703.062 522.087 707.023 535.692C710.731 547.119 716.309 557.851 723.529 567.453C728.08 573.702 750.197 628.759 750.197 628.759L753.593 637.272C753.593 637.272 752.461 640.667 746.236 645.194C740.011 649.721 722.397 657.102 726.948 658.823C731.499 660.544 749.631 660.521 758.143 659.955C765.472 659.436 772.342 656.198 777.408 650.877C780.827 646.892 771.749 635.55 771.749 633.287C771.749 631.023 751.895 561.841 750.763 558.422C749.631 555.003 743.949 530.646 743.949 530.646V502.94C743.949 502.94 746.802 497.847 746.802 486.435C746.802 475.022 738.29 472.806 738.29 472.806L691.768 477.356L695.116 484.077Z" fill="#263238" stroke="#263238" stroke-width="1.04742" stroke-linecap="round" stroke-linejoin="round"/>
<path d="M691.178 480.752C691.178 480.752 692.333 490.396 695.729 490.962C699.124 491.528 734.281 501.172 749.607 489.83C749.607 489.83 752.437 481.318 750.739 479.054C749.041 476.791 745.057 477.923 724.66 477.923C704.264 477.923 691.178 477.923 691.178 480.752Z" fill="#8B5CF6" stroke="#263238" stroke-width="1.04742" stroke-linecap="round" stroke-linejoin="round"/>
<path d="M743.311 353.707C743.311 353.707 722.326 356.536 713.248 365.496C704.17 374.456 696.247 391.033 692.286 406.336C688.324 421.639 685.471 477.805 691.13 480.634C696.789 483.464 744.443 486.317 752.436 482.992C760.43 479.667 751.871 452.928 751.871 442.718C751.871 432.509 760.949 397.918 759.251 378.653C757.553 359.389 743.311 353.707 743.311 353.707Z" fill="#8B5CF6" stroke="#263238" stroke-width="1.04742" stroke-linecap="round" stroke-linejoin="round"/>
<path d="M667.598 412.655C667.339 389.311 657.813 369.387 645.15 360.78V356.064L610.253 356.418C590.611 356.63 574.884 382.355 575.285 413.716C575.686 445.076 591.79 470.471 611.456 470.306L646.353 469.953V465.237C658.614 456.112 667.716 435.998 667.598 412.655Z" fill="#263238" stroke="#263238" stroke-width="1.04742" stroke-linecap="round" stroke-linejoin="round"/>
<path d="M683.256 412.49C682.996 387.967 673.541 367.029 660.242 357.927V352.905L645.293 353.07C624.638 353.282 608.203 380.233 608.556 413.268C608.91 446.303 625.911 472.9 646.566 472.688L661.516 472.523V467.524C674.508 458.139 683.515 436.918 683.256 412.49Z" fill="white" stroke="#263238" stroke-width="1.04742" stroke-linecap="round" stroke-linejoin="round"/>
<path d="M698.252 412.325C698.606 445.336 682.147 472.311 661.516 472.523C640.884 472.735 623.789 446.138 623.506 413.127C623.223 380.115 639.61 353.141 660.242 352.905C680.874 352.669 697.851 379.29 698.252 412.325Z" fill="#737373" stroke="#263238" stroke-width="1.04742" stroke-linecap="round" stroke-linejoin="round"/>
<path d="M689.669 411.311C689.834 426.944 682.029 439.724 672.244 439.842C662.458 439.96 654.394 427.321 654.229 411.547C654.064 395.772 661.869 383.251 671.654 383.016C681.44 382.78 689.504 395.654 689.669 411.311Z" fill="#263238" stroke="#263238" stroke-width="1.04742" stroke-linecap="round" stroke-linejoin="round"/>
<path d="M967.527 528.877C969.474 514.343 970.302 499.681 970.003 485.02C962.34 488.557 917.634 489.854 913.531 489.948C909.428 490.042 864.722 488.557 857.058 485.02C856.721 499.678 857.509 514.34 859.416 528.877C862.505 548 889.669 624.562 890.282 628.264C891.077 631.834 892.109 635.348 893.37 638.781C893.37 638.781 877.926 649.886 871.135 654.202C864.344 658.517 869.296 660.379 876.087 660.379C882.878 660.379 897.072 658.517 901.387 658.517C905.207 658.517 911.857 655.192 913.413 654.39C914.969 655.192 921.618 658.517 925.415 658.517C929.753 658.517 943.948 660.379 950.739 660.379C957.53 660.379 962.529 658.517 955.691 654.202C948.853 649.886 933.455 638.781 933.455 638.781C934.717 635.348 935.749 631.834 936.544 628.264C937.275 624.492 964.439 547.929 967.527 528.877Z" fill="#263238" stroke="#263238" stroke-width="1.04742" stroke-linecap="round" stroke-linejoin="round"/>
<path d="M904.193 364.978C904.193 364.978 880.307 372.782 867.975 380.611C855.643 388.439 843.264 430.835 843.264 432.485C842.555 435.439 841.593 438.327 840.388 441.115C840.388 441.115 828.032 438.239 825.58 448.519C823.127 458.8 837.912 471.981 845.74 472.405C853.568 472.829 856.021 470.354 856.021 470.354C856.021 470.354 851.093 480.233 853.144 484.336C855.195 488.439 872.503 503.695 906.669 503.2C940.835 502.704 965.617 497.022 969.225 492.094C972.833 487.166 973.351 476.861 973.351 476.861C973.351 476.861 986.108 473.56 990.635 465.331C995.162 457.102 994.337 448.448 991.861 439.818C989.385 431.188 976.629 406.123 967.999 392.117C959.369 378.111 941.236 370.306 932.63 367.831C924.023 365.355 909.947 364.978 904.193 364.978Z" fill="#8B5CF6" stroke="#263238" stroke-width="1.04742" stroke-linecap="round" stroke-linejoin="round"/>
<path d="M911.433 399.639C914.852 398.507 925.581 388.981 929.707 379.455C931.34 375.808 932.489 371.964 933.126 368.019L932.584 367.854C923.954 365.378 909.948 364.978 904.289 364.978C904.289 364.978 899.29 366.604 892.688 369.127C892.728 374.224 893.687 379.272 895.517 384.03C899.243 393.556 908.108 400.795 911.433 399.639Z" fill="white" stroke="#263238" stroke-width="1.04742" stroke-linecap="round" stroke-linejoin="round"/>
<path d="M950.691 418.88C950.691 418.88 960.571 471.58 971.771 477.003" stroke="#263238" stroke-width="1.04742" stroke-linecap="round" stroke-linejoin="round"/>
<path d="M856.021 470.353C856.021 470.353 868.377 423.831 869.202 419.304" stroke="#263238" stroke-width="1.04742" stroke-linecap="round" stroke-linejoin="round"/>
<path d="M966.654 442.695C966.654 442.695 959.816 444.228 959.816 449.179" stroke="#263238" stroke-width="1.04742" stroke-linecap="round" stroke-linejoin="round"/>
<path d="M850.48 443.449C850.48 443.449 858.097 448.401 857.342 456.017" stroke="#263238" stroke-width="1.04742" stroke-linecap="round" stroke-linejoin="round"/>
<path d="M901.506 658.564C905.326 658.564 911.975 655.239 913.531 654.437C915.088 655.239 921.737 658.564 925.533 658.564C929.872 658.564 944.067 660.427 950.857 660.427C957.648 660.427 962.647 658.564 955.809 654.249C949.891 650.5 937.488 641.634 934.328 639.37C927.042 646.02 912.635 644.369 912.635 644.369C909.717 643.929 906.827 643.315 903.982 642.53C899.667 641.28 893.489 638.828 893.489 638.828C893.489 638.828 878.044 649.934 871.254 654.249C864.463 658.564 869.414 660.427 876.205 660.427C882.996 660.427 897.191 658.564 901.506 658.564Z" fill="#8B5CF6" stroke="#263238" stroke-width="1.04742" stroke-linecap="round" stroke-linejoin="round"/>
<path d="M912.635 638.922V531.259" stroke="white" stroke-width="1.04742" stroke-linecap="round" stroke-linejoin="round"/>
<path d="M913.531 654.319L912.635 644.251V638.922" stroke="#263238" stroke-width="1.04742" stroke-linecap="round" stroke-linejoin="round"/>
<path d="M903.98 527.557H921.877" stroke="white" stroke-width="1.04742" stroke-linecap="round" stroke-linejoin="round"/>
<path d="M880.59 303.2C880.59 303.2 867.763 310.887 869.672 317.63C871.582 324.374 877.383 325.671 876.11 329.42C874.836 333.169 870.38 335.527 875.449 337.885C878.337 339.178 881.357 340.15 884.457 340.785C884.457 340.785 889.173 357.149 897.284 360.026C905.395 362.903 919.448 360.993 929.399 359.719C932.76 359.39 935.942 358.045 938.52 355.863C941.097 353.681 942.95 350.766 943.829 347.505C944.796 343.992 939.656 348.165 937.086 344.298C934.516 340.431 938.383 330.505 941.259 321.827C944.136 313.15 935.482 296.786 924.259 291.339C913.035 285.892 891.601 288.746 880.59 303.2Z" fill="#263238" stroke="#263238" stroke-width="1.04742" stroke-linecap="round" stroke-linejoin="round"/>
<path d="M902.141 359.106C900.51 364.488 899.404 370.016 898.84 375.612C898.416 382.686 904.193 390.443 910.371 390.019C916.548 389.594 921.877 377.262 922.703 371.155C923.528 365.048 920.651 348.519 920.651 348.519C920.651 348.519 911.22 348.943 907.47 352.221C905.269 354.153 903.46 356.49 902.141 359.106Z" fill="white" stroke="#263238" stroke-width="1.04742" stroke-linecap="round" stroke-linejoin="round"/>
<path d="M893.771 312.183C893.771 312.183 894.078 321.804 903.721 331.047C909.519 336.653 916.393 341.024 923.929 343.898C923.761 346.005 923.218 348.065 922.326 349.981C921.906 350.782 921.253 351.437 920.453 351.858C919.653 352.279 918.743 352.447 917.845 352.339H914.615C914.615 352.339 909.899 363.398 904.193 365.001C898.487 366.604 884.457 365.496 882.524 351.372C880.59 337.248 880.284 325.694 881.887 322.794C883.49 319.894 893.771 312.183 893.771 312.183Z" fill="white" stroke="#263238" stroke-width="1.04742" stroke-linecap="round" stroke-linejoin="round"/>
<path d="M994.668 436.447C996.131 433.497 997.019 430.296 997.285 427.015C997.285 422.723 989.315 416.569 987.853 415.037C986.392 413.504 984.93 413.669 984.623 415.815C984.619 417.019 984.862 418.212 985.336 419.319C985.811 420.426 986.507 421.424 987.382 422.252C988.577 423.194 989.443 424.49 989.858 425.954C989.999 427.015 987.217 432.226 988.608 435.598C989.999 438.97 993.913 439.983 994.668 436.447Z" fill="white" stroke="#263238" stroke-width="1.04742" stroke-linecap="round" stroke-linejoin="round"/>
<path d="M675.332 412.372C675.332 412.372 710.041 423.478 730.909 449.415C751.776 475.352 765.476 471.627 791.413 462.997C817.35 454.367 827.23 423.478 863.047 449.415C898.864 475.352 906.268 485.208 935.907 470.401C965.546 455.593 981.58 419.776 1008.77 432.108C1035.95 444.44 1023.58 507.562 1026.05 538.215C1028.53 568.868 1024.8 645.666 1030.98 655.545C1037.16 665.425 1100.14 657.903 1100.14 657.903" stroke="#263238" stroke-width="3.14226" stroke-linecap="round" stroke-linejoin="round"/>
<path d="M740.34 371.155C740.34 371.155 733.431 359.884 723.245 362.832C712.469 365.944 706.904 381.342 704.381 390.938C701.858 400.535 700.161 410.91 695.539 419.847C695.539 419.847 675.119 419.493 663.73 416.192C655.041 413.483 646.494 410.335 638.123 406.76C638.123 406.76 634.091 401.125 631.238 400.016C628.385 398.908 620.981 396.739 620.439 398.437C619.896 400.134 629.022 405.723 629.022 405.723C629.022 405.723 612.045 408.081 610.347 409.896C608.649 411.712 622.349 417.135 622.349 417.135C622.349 417.135 627.465 418.786 639.915 415.815C639.915 415.815 685.588 444.817 694.69 448.142C703.792 451.467 708.838 452.528 715.039 440.549C721.24 428.571 741.825 398.861 745.103 386.906" fill="#8B5CF6"/>
<path d="M740.34 371.155C740.34 371.155 733.431 359.884 723.245 362.832C712.469 365.944 706.904 381.342 704.381 390.938C701.858 400.535 700.161 410.91 695.539 419.847C695.539 419.847 675.119 419.493 663.73 416.192C655.041 413.483 646.494 410.335 638.123 406.76C638.123 406.76 634.091 401.125 631.238 400.016C628.385 398.908 620.981 396.739 620.439 398.437C619.896 400.134 629.022 405.723 629.022 405.723C629.022 405.723 612.045 408.081 610.347 409.896C608.649 411.712 622.349 417.135 622.349 417.135C622.349 417.135 627.465 418.786 639.915 415.815C639.915 415.815 685.588 444.817 694.69 448.142C703.792 451.467 708.838 452.528 715.039 440.549C721.24 428.571 741.825 398.861 745.103 386.906" stroke="#263238" stroke-width="1.04742" stroke-linecap="round" stroke-linejoin="round"/>
<path d="M649.985 411.57C643.312 409.071 638.196 406.854 638.196 406.854C638.196 406.854 634.163 401.219 631.31 400.111C628.457 399.002 621.053 396.833 620.511 398.531C619.969 400.228 629.094 405.817 629.094 405.817C629.094 405.817 612.117 408.175 610.419 409.99C608.721 411.806 622.421 417.229 622.421 417.229C622.421 417.229 627.538 418.88 639.988 415.909L646.378 419.941L649.985 411.57Z" fill="white" stroke="#263238" stroke-width="1.04742" stroke-linecap="round" stroke-linejoin="round"/>
<path d="M826.027 440.785C824.564 437.836 823.676 434.635 823.41 431.353C823.41 427.062 831.404 420.931 832.842 419.399C834.28 417.866 835.742 418.031 836.049 420.177C836.053 421.381 835.81 422.574 835.336 423.681C834.861 424.788 834.165 425.786 833.29 426.614C832.095 427.556 831.228 428.852 830.814 430.316C830.673 431.353 833.455 436.588 832.064 439.96C830.673 443.332 826.782 444.298 826.027 440.785Z" fill="white" stroke="#263238" stroke-width="1.04742" stroke-linecap="round" stroke-linejoin="round"/>
<path d="M831.522 427.84C831.522 427.84 824.943 439.983 828.763 444.345C832.583 448.708 836.285 434.536 836.992 430.622C837.699 426.708 833.95 422.77 831.522 427.84Z" fill="white" stroke="#263238" stroke-width="1.04742" stroke-linecap="round" stroke-linejoin="round"/>
<path d="M836.945 432.202C836.945 432.202 830.367 444.345 834.187 448.708C838.006 453.07 841.709 438.899 842.416 434.984C843.123 431.07 839.374 426.991 836.945 432.202Z" fill="white" stroke="#263238" stroke-width="1.04742" stroke-linecap="round" stroke-linejoin="round"/>
<path d="M842.91 433.216C842.91 433.216 836.332 445.359 840.151 449.721C843.971 454.084 847.673 439.912 848.381 435.998C849.088 432.084 845.339 428.123 842.91 433.216Z" fill="white" stroke="#263238" stroke-width="1.04742" stroke-linecap="round" stroke-linejoin="round"/>
<path d="M850.55 433.31C850.55 433.31 844.42 442.742 847.768 446.303C851.116 449.863 854.724 438.663 855.431 435.433C856.139 432.202 852.814 429.066 850.55 433.31Z" fill="white" stroke="#263238" stroke-width="1.04742" stroke-linecap="round" stroke-linejoin="round"/>
<path d="M990.28 428.312C990.28 428.312 996.859 440.455 993.039 444.817C989.219 449.179 985.517 434.984 984.81 431.07C984.103 427.156 987.852 423.218 990.28 428.312Z" fill="white" stroke="#263238" stroke-width="1.04742" stroke-linecap="round" stroke-linejoin="round"/>
<path d="M984.858 432.556C984.858 432.556 991.437 444.699 987.617 449.061C983.797 453.424 980.096 439.229 979.388 435.315C978.681 431.401 982.43 427.486 984.858 432.556Z" fill="white" stroke="#263238" stroke-width="1.04742" stroke-linecap="round" stroke-linejoin="round"/>
<path d="M978.845 433.688C978.845 433.688 985.423 445.831 981.604 450.193C977.784 454.555 974.082 440.384 973.398 436.446C972.714 432.509 976.487 428.594 978.845 433.688Z" fill="white" stroke="#263238" stroke-width="1.04742" stroke-linecap="round" stroke-linejoin="round"/>
<path d="M971.252 433.782C971.252 433.782 977.383 443.332 974.034 446.774C970.686 450.217 967.079 439.135 966.395 435.904C965.711 432.674 968.988 429.538 971.252 433.782Z" fill="white" stroke="#263238" stroke-width="1.04742" stroke-linecap="round" stroke-linejoin="round"/>
<path d="M159.982 568.137V581.53C155.334 586.61 151.992 592.744 150.243 599.403C147.39 610.344 138.454 657.432 140.812 658.658C143.17 659.884 165.358 664.954 172.432 663.893C180.543 662.666 187.452 663.091 183.372 658.611C179.293 654.131 157.86 641.61 157.86 641.61C157.86 641.61 181.439 607.514 186.674 594.923C191.908 582.332 192.757 562.855 192.757 562.855L161.114 561.653L159.982 568.137Z" fill="white" stroke="#263238" stroke-width="1.04742" stroke-linecap="round" stroke-linejoin="round"/>
<path d="M172.433 663.893C180.544 662.666 187.453 663.091 183.374 658.611C179.295 654.131 157.861 641.61 157.861 641.61L157.059 646.467L141.615 644.581C140.483 652.457 139.988 658.234 140.813 658.729C143.336 659.861 165.359 664.954 172.433 663.893Z" fill="#263238" stroke="#263238" stroke-width="1.04742" stroke-linecap="round" stroke-linejoin="round"/>
<path d="M237.512 575.069L241.167 581.577C239.652 584.498 238.76 587.702 238.549 590.986C238.338 594.27 238.812 597.562 239.941 600.653C243.595 612.018 252.131 653.824 252.131 656.253C252.131 658.682 257.389 660.309 261.563 660.309C265.736 660.309 277.29 661.11 278.917 661.11C280.544 661.11 292.31 663.138 296.366 660.709C300.422 658.281 291.202 653.4 285.119 650.57C279.035 647.741 265.642 640.431 265.642 640.431C265.642 640.431 268.872 607.137 268.872 592.518C268.872 577.899 272.126 573.041 267.67 564.105C263.213 555.168 235.201 568.184 235.201 568.184L237.512 575.069Z" fill="white" stroke="#263238" stroke-width="1.04742" stroke-linecap="round" stroke-linejoin="round"/>
<path d="M285 650.57C278.917 647.717 265.524 640.431 265.524 640.431L263.897 646.515L250.857 648.873C251.636 652.928 252.131 655.711 252.131 656.276C252.131 658.634 257.389 660.332 261.562 660.332C265.736 660.332 277.29 661.134 278.917 661.134C280.544 661.134 292.31 663.162 296.366 660.733C300.421 658.304 291.084 653.4 285 650.57Z" fill="#263238" stroke="#263238" stroke-width="1.04742" stroke-linecap="round" stroke-linejoin="round"/>
<path d="M215.654 304.874C212.472 299.436 208.835 294.277 204.784 289.453C199.195 283.157 181.676 283.511 173.989 291.811C166.302 300.111 168.731 314.918 171.631 319.116C174.531 323.313 180.379 342.931 180.379 342.931L181.77 356.937L214.333 368.491L207.684 345.737C207.684 345.737 220.299 343.379 221.336 339.441C222.374 335.503 219.238 322.275 219.238 322.275C219.238 322.275 223.435 319.469 223.081 317.017C222.728 314.565 215.654 304.874 215.654 304.874Z" fill="white" stroke="#263238" stroke-width="1.04742" stroke-linecap="round" stroke-linejoin="round"/>
<path d="M178.185 319.965C178.185 319.965 183.75 324.68 186.792 319.281C189.833 313.881 192.144 308.599 192.144 304.025C192.144 299.451 180.708 295.654 188.324 292.589C195.94 289.524 201.434 296.338 204.83 289.5C208.225 282.662 205.136 281.931 186.839 281.931C168.541 281.931 159.393 291.08 163.26 302.516C166.352 310.961 170.179 319.119 174.696 326.897L178.185 319.965Z" fill="#263238" stroke="#263238" stroke-width="1.04742" stroke-linecap="round" stroke-linejoin="round"/>
<path d="M216.691 312.962C216.691 314.692 216.178 316.383 215.217 317.822C214.256 319.26 212.889 320.381 211.291 321.044C209.692 321.706 207.934 321.879 206.237 321.541C204.54 321.204 202.981 320.371 201.758 319.147C200.534 317.924 199.701 316.365 199.363 314.668C199.026 312.971 199.199 311.212 199.861 309.614C200.523 308.015 201.645 306.649 203.083 305.688C204.522 304.727 206.213 304.214 207.943 304.214C210.263 304.214 212.488 305.135 214.129 306.776C215.77 308.416 216.691 310.641 216.691 312.962V312.962Z" stroke="#263238" stroke-width="1.04742" stroke-linecap="round" stroke-linejoin="round"/>
<path d="M215.418 305.204C216.436 304.787 217.525 304.571 218.625 304.567C220.446 304.57 222.215 305.178 223.654 306.295C225.094 307.411 226.122 308.974 226.577 310.737C227.033 312.501 226.891 314.366 226.173 316.04C225.455 317.714 224.202 319.103 222.61 319.988" stroke="#263238" stroke-width="1.04742" stroke-linecap="round" stroke-linejoin="round"/>
<path d="M199.195 312.961L178.186 319.964" stroke="#263238" stroke-width="1.04742" stroke-linecap="round" stroke-linejoin="round"/>
<path d="M184.221 324.515C184.221 324.515 180.024 315.767 175.827 317.441C171.63 319.116 173.728 332.862 177.925 334.254C179.336 334.571 180.802 334.546 182.201 334.181C183.6 333.816 184.891 333.121 185.966 332.155C185.966 332.155 189.479 339.512 193.676 341.587" fill="white"/>
<path d="M184.221 324.515C184.221 324.515 180.024 315.767 175.827 317.441C171.63 319.116 173.728 332.862 177.925 334.254C179.336 334.571 180.802 334.546 182.201 334.181C183.6 333.816 184.891 333.121 185.966 332.155C185.966 332.155 189.479 339.512 193.676 341.587" stroke="#263238" stroke-width="1.04742" stroke-linecap="round" stroke-linejoin="round"/>
<path d="M156.682 481.719L154.065 515.248L146.236 564.883C146.236 564.883 164.534 579.243 181.605 579.243C198.677 579.243 203.369 577.074 203.369 577.074L212.942 526.142L222.515 579.691C222.515 579.691 241.379 576.649 253.876 573.584C262.566 571.166 270.801 567.342 278.257 562.266L253.004 496.526L247.533 462.619C247.533 462.619 219.238 465.237 202.237 466.109C185.237 466.982 162.624 462.619 162.624 462.619L156.682 481.719Z" fill="#8B5CF6" stroke="#263238" stroke-width="1.04742" stroke-linecap="round" stroke-linejoin="round"/>
<path d="M174.626 347.741C174.626 347.741 214.711 361.724 227.09 375.305C233.928 382.851 241.591 434.489 244.35 447.104C247.109 459.719 251.919 484.831 251.919 484.831C251.919 484.831 227.467 495.866 208.557 496.267C189.646 496.668 153.357 487.991 153.357 487.991C153.357 487.991 157.672 432.037 157.672 406.029C157.672 380.021 158.073 363.044 162.388 354.768C162.412 354.838 169.509 346.939 174.626 347.741Z" fill="#263238" stroke="#263238" stroke-width="1.04742" stroke-linecap="round" stroke-linejoin="round"/>
<path d="M164.086 492.046C164.086 492.046 166.255 528.618 164.086 542.129C162.563 550.846 159.932 559.332 156.258 567.382" stroke="#263238" stroke-width="1.04742" stroke-linecap="round" stroke-linejoin="round"/>
<path d="M164.957 509.472C168.231 508.347 171.157 506.391 173.447 503.795C175.737 501.199 177.313 498.052 178.02 494.664" stroke="#263238" stroke-width="1.04742" stroke-linecap="round" stroke-linejoin="round"/>
<path d="M148.404 557.809C148.404 557.809 170.192 576.531 204.146 569.599" stroke="#263238" stroke-width="1.04742" stroke-linecap="round" stroke-linejoin="round"/>
<path d="M221.572 568.679C221.572 568.679 257.271 564.765 272.952 554.32" stroke="#263238" stroke-width="1.04742" stroke-linecap="round" stroke-linejoin="round"/>
<path d="M381.25 330.811C381.25 330.811 377.808 333.358 365.806 342.129C353.804 350.901 363.259 364.152 363.259 364.152C363.259 364.152 354.676 365.496 343.217 377.545C331.757 389.594 348.334 410.273 363.825 413.504C379.317 416.734 397.426 397.564 402.849 379.785C408.272 362.006 401.104 335.197 397.496 329.656C393.889 324.114 381.25 330.811 381.25 330.811Z" fill="#263238" stroke="#263238" stroke-width="1.04742" stroke-linecap="round" stroke-linejoin="round"/>
<path d="M426.713 328.453C426.713 328.453 432.678 319.233 427.279 305.864C421.879 292.494 405.751 286.387 390.047 296.079C384.813 299.193 380.753 303.948 378.497 309.606C376.242 315.263 375.917 321.507 377.573 327.368C379.106 333.546 386.84 343.049 388.467 343.19C390.094 343.332 404.218 348.472 413.862 343.968C423.506 339.465 426.713 328.453 426.713 328.453Z" fill="#263238" stroke="#263238" stroke-width="1.04742" stroke-linecap="round" stroke-linejoin="round"/>
<path d="M357.318 639.7C357.318 639.7 368.519 657.125 387.971 660.096C407.424 663.067 389.929 645.619 386.651 642.978C383.374 640.337 359.959 634.631 357.318 639.7Z" fill="#737373" stroke="#263238" stroke-width="1.04742" stroke-linecap="round" stroke-linejoin="round"/>
<path d="M460.949 644.18C460.949 644.18 482.335 649.439 480.685 654.06C479.034 658.682 461.609 658.328 451.423 655.687C441.237 653.046 431.663 649.109 432.984 644.841C434.304 640.573 460.949 644.18 460.949 644.18Z" fill="#737373" stroke="#263238" stroke-width="1.04742" stroke-linecap="round" stroke-linejoin="round"/>
<path d="M400.137 363.115C400.137 363.115 371.512 367.312 366.278 377.427C361.043 387.543 368.423 442.648 368.423 442.648C368.423 442.648 356.209 469.599 356.044 486.953C355.879 504.308 363.613 534.843 363 542.459C362.387 550.075 354.559 636.777 354.559 639.134C354.559 641.492 371.064 646.774 394.856 649.604C418.647 652.433 464.155 643.968 464.155 643.968C464.155 643.968 463.259 592.801 465.641 562.289C468.022 531.778 464.627 504.355 458.567 492.966C452.507 481.577 424.283 440.573 424.283 440.573C424.283 440.573 437.959 415.767 438.808 404.921C439.656 394.074 435.247 388.415 424.919 375.942C421.85 372.262 418.077 369.233 413.822 367.03C409.566 364.827 404.914 363.496 400.137 363.115Z" fill="#8B5CF6" stroke="#263238" stroke-width="1.04742" stroke-linecap="round" stroke-linejoin="round"/>
<path d="M424.354 440.596C424.354 440.596 438.03 415.791 438.879 404.944C439.728 394.098 435.319 388.439 424.991 375.965C424.496 375.352 423.977 374.81 423.458 374.244L423.081 374.598C412.47 391.929 377.384 421.544 366.939 430.174C367.74 437.555 368.424 442.648 368.424 442.648C368.424 442.648 356.21 469.599 356.045 486.953C356.24 494.861 357.029 502.743 358.403 510.533C383.185 496.385 416.337 469.906 434.281 455.145C428.669 446.845 424.354 440.596 424.354 440.596Z" fill="#737373" stroke="#263238" stroke-width="1.04742" stroke-linecap="round" stroke-linejoin="round"/>
<path d="M394.855 342.884C395.647 349.355 396.079 355.865 396.152 362.384C395.775 367.218 397.331 378.253 405.584 381.719C413.837 385.185 419.024 380.351 419.001 375.494C418.701 371.482 417.909 367.523 416.643 363.704L416.879 350.382C416.879 350.382 402.637 341.469 394.855 342.884Z" fill="white" stroke="#263238" stroke-width="1.04742" stroke-linecap="round" stroke-linejoin="round"/>
<path d="M387.451 334.23C387.451 334.23 381.392 328.901 381.203 336.588C381.014 344.275 388.088 346.821 389.644 347.34C390.958 347.519 392.29 347.19 393.37 346.42C393.37 346.42 404.358 355.852 413.177 356.465C421.995 357.078 425.579 352.999 427.654 336.989C429.729 320.978 413.2 304.732 413.2 304.732C413.2 304.732 399.052 330.811 387.451 334.23Z" fill="white" stroke="#263238" stroke-width="1.04742" stroke-linecap="round" stroke-linejoin="round"/>
<path d="M252.602 484.501C252.522 481.769 252.97 479.046 253.922 476.484C255.384 473.277 263.354 471.438 265.123 470.825C266.891 470.212 267.787 470.825 267.268 472.499C266.856 473.399 266.265 474.206 265.531 474.871C264.798 475.535 263.937 476.044 263 476.366C261.781 476.659 260.684 477.327 259.864 478.276C259.416 479.031 259.699 483.864 257.506 485.916C255.314 487.967 251.871 487.401 252.602 484.501Z" fill="white" stroke="#263238" stroke-width="1.04742" stroke-linecap="round" stroke-linejoin="round"/>
<path d="M433.314 413.598C433.314 413.598 405.019 409.896 392.545 429.656C380.072 449.415 356.752 518.55 313.531 529.679C270.31 540.809 257.955 451.867 232.017 454.343C207.306 456.701 190.046 454.343 175.215 481.507C167.292 496.055 127.679 654.909 108.957 656.536C49.3246 661.747 10.9375 658.352 10.9375 658.352" stroke="#263238" stroke-width="3.14226" stroke-linecap="round" stroke-linejoin="round"/>
<path d="M176.465 348.873C176.465 348.873 169.933 346.256 161.209 351.467C152.485 356.678 129 413.74 130.745 419.847C132.489 425.954 157.295 437.272 171.23 441.186C185.166 445.1 210.419 449.91 210.419 449.91C210.419 449.91 218.247 462.101 220.865 462.525C224.671 462.474 228.463 462.039 232.183 461.228C232.183 461.228 236.899 465.143 238.714 460.78C240.53 456.418 236.969 450.783 233.055 446.421C229.141 442.058 212.588 439.889 212.588 439.889L167.717 408.953L186.58 374.126" fill="#263238"/>
<path d="M176.465 348.873C176.465 348.873 169.933 346.256 161.209 351.467C152.485 356.678 129 413.74 130.745 419.847C132.489 425.954 157.295 437.272 171.23 441.186C185.166 445.1 210.419 449.91 210.419 449.91C210.419 449.91 218.247 462.101 220.865 462.525C224.671 462.474 228.463 462.039 232.183 461.228C232.183 461.228 236.899 465.143 238.714 460.78C240.53 456.418 236.969 450.783 233.055 446.421C229.141 442.058 212.588 439.889 212.588 439.889L167.717 408.953L186.58 374.126" stroke="#263238" stroke-width="1.04742" stroke-linecap="round" stroke-linejoin="round"/>
<path d="M220.864 462.502C224.671 462.45 228.463 462.016 232.182 461.205C232.182 461.205 236.898 465.119 238.714 460.757C240.529 456.395 236.969 450.759 233.055 446.397C229.14 442.035 212.588 439.865 212.588 439.865L167.716 408.953L174.413 396.48C157.648 386.034 146.518 386.812 140.506 388.911C134.493 403.341 129.919 417.017 130.72 419.823C132.465 425.93 157.271 437.248 171.206 441.162C185.141 445.076 210.395 449.887 210.395 449.887C210.395 449.887 218.247 462.077 220.864 462.502Z" fill="white" stroke="#263238" stroke-width="1.04742" stroke-linecap="round" stroke-linejoin="round"/>
<path d="M501.34 414.565C499.43 393.98 489.55 377.074 477.76 370.354L477.383 366.156L446.588 369.01C429.258 370.613 417.303 394.405 419.873 422.134C422.443 449.863 438.572 471.014 455.902 469.293L486.697 466.439L486.296 462.242C496.671 453.565 503.25 435.15 501.34 414.565Z" fill="#263238" stroke="#263238" stroke-width="1.04742" stroke-linecap="round" stroke-linejoin="round"/>
<path d="M515.276 413.339C513.272 391.716 503.487 373.914 491.013 366.84L490.589 362.431L477.408 363.657C459.205 365.355 446.637 390.325 449.325 419.469C452.013 448.613 468.99 470.849 487.193 469.151L500.374 467.925L499.973 463.515C510.867 454.225 517.281 434.89 515.276 413.339Z" fill="white" stroke="#263238" stroke-width="1.04742" stroke-linecap="round" stroke-linejoin="round"/>
<path d="M528.481 412.042C531.193 441.186 518.625 466.156 500.398 467.854C482.171 469.552 465.218 447.293 462.459 418.172C459.7 389.052 472.315 363.94 490.518 362.36C508.721 360.78 525.746 382.921 528.481 412.042Z" fill="white" stroke="#263238" stroke-width="1.04742" stroke-linecap="round" stroke-linejoin="round"/>
<path d="M542.628 395.017L491.484 399.733C490.767 399.801 490.044 399.727 489.355 399.515C488.667 399.303 488.027 398.957 487.473 398.497C486.919 398.037 486.461 397.472 486.125 396.834C485.79 396.197 485.584 395.499 485.519 394.782C485.451 394.065 485.525 393.341 485.737 392.653C485.949 391.964 486.295 391.325 486.755 390.77C487.215 390.216 487.78 389.758 488.418 389.423C489.055 389.087 489.753 388.881 490.47 388.816L541.614 384.1C542.331 384.032 543.055 384.106 543.743 384.318C544.431 384.531 545.071 384.877 545.625 385.337C546.18 385.797 546.638 386.362 546.973 386.999C547.308 387.637 547.514 388.334 547.579 389.052C547.648 389.769 547.573 390.493 547.361 391.181C547.149 391.869 546.803 392.509 546.343 393.063C545.883 393.618 545.318 394.076 544.68 394.411C544.043 394.746 543.345 394.952 542.628 395.017Z" fill="#737373" stroke="#263238" stroke-width="1.04742" stroke-linecap="round" stroke-linejoin="round"/>
<path d="M546.425 435.55L495.281 440.266C494.564 440.334 493.84 440.26 493.152 440.048C492.464 439.836 491.824 439.49 491.27 439.03C490.715 438.57 490.257 438.004 489.922 437.367C489.587 436.729 489.381 436.032 489.316 435.315C489.247 434.597 489.322 433.874 489.534 433.185C489.746 432.497 490.092 431.857 490.552 431.303C491.012 430.749 491.577 430.291 492.215 429.955C492.852 429.62 493.55 429.414 494.267 429.349L545.411 424.633C546.856 424.508 548.293 424.958 549.41 425.885C550.526 426.811 551.233 428.141 551.376 429.585C551.445 430.302 551.37 431.025 551.158 431.714C550.946 432.402 550.6 433.042 550.14 433.596C549.68 434.15 549.115 434.608 548.477 434.944C547.84 435.279 547.142 435.485 546.425 435.55Z" fill="#737373" stroke="#263238" stroke-width="1.04742" stroke-linecap="round" stroke-linejoin="round"/>
<path d="M382.454 366.958C382.454 366.958 370.146 369.316 364.322 376.39C358.498 383.464 346.543 438.05 349.302 444.322C352.06 450.594 396.272 458.47 409.924 459.601C420.902 460.036 431.897 459.547 442.794 458.14C442.794 458.14 454.583 457.833 457.814 457.291C461.044 456.748 466.986 453.565 467.08 452.363C467.175 451.16 466.585 448.283 462.176 447.93C457.767 447.576 448.311 444.416 447.109 444.322C449.942 443.577 452.815 442.994 455.715 442.577C455.715 442.577 456.328 440.219 451.471 440.219C446.614 440.219 442.204 439.889 440.365 442.577C439.05 444.671 437.929 446.881 437.017 449.179C437.017 449.179 409.783 451.089 394.998 443.874C380.214 436.659 375.545 434.254 375.545 434.254L386.156 391.811" fill="#8B5CF6"/>
<path d="M382.454 366.958C382.454 366.958 370.146 369.316 364.322 376.39C358.498 383.464 346.543 438.05 349.302 444.322C352.06 450.594 396.272 458.47 409.924 459.601C420.902 460.036 431.897 459.547 442.794 458.14C442.794 458.14 454.583 457.833 457.814 457.291C461.044 456.748 466.986 453.565 467.08 452.363C467.175 451.16 466.585 448.283 462.176 447.93C457.767 447.576 448.311 444.416 447.109 444.322C449.942 443.577 452.815 442.994 455.715 442.577C455.715 442.577 456.328 440.219 451.471 440.219C446.614 440.219 442.204 439.889 440.365 442.577C439.05 444.671 437.929 446.881 437.017 449.179C437.017 449.179 409.783 451.089 394.998 443.874C380.214 436.659 375.545 434.254 375.545 434.254L386.156 391.811" stroke="#263238" stroke-width="1.04742" stroke-linecap="round" stroke-linejoin="round"/>
<path d="M457.742 457.361C461.02 456.819 466.915 453.636 467.009 452.433C467.103 451.231 466.514 448.354 462.104 448C457.695 447.647 448.24 444.487 447.037 444.393C449.87 443.647 452.744 443.065 455.644 442.648C455.644 442.648 456.257 440.29 451.399 440.29C446.542 440.29 442.133 439.96 440.293 442.648C438.978 444.742 437.858 446.952 436.945 449.25C436.945 449.25 409.711 451.16 394.927 443.945C380.143 436.729 375.474 434.324 375.474 434.324L381.935 408.387C373.524 404.926 364.649 402.725 355.596 401.855C351.187 419.634 347.58 440.573 349.23 444.298C351.965 450.57 396.2 458.446 409.853 459.578C420.831 460.012 431.826 459.523 442.722 458.116C442.722 458.116 454.535 457.904 457.742 457.361Z" fill="white" stroke="#263238" stroke-width="1.04742" stroke-linecap="round" stroke-linejoin="round"/>
<path d="M258.591 479.927C258.591 479.927 249.49 486.741 250.881 491.245C252.272 495.748 259.865 486.529 261.751 483.817C263.637 481.106 262.152 477.003 258.591 479.927Z" fill="white" stroke="#263238" stroke-width="1.04742" stroke-linecap="round" stroke-linejoin="round"/>
<path d="M260.384 486.034C260.384 486.034 251.306 492.848 252.674 497.352C254.041 501.855 261.681 492.636 263.544 489.924C265.406 487.213 263.944 483.063 260.384 486.034Z" fill="white" stroke="#263238" stroke-width="1.04742" stroke-linecap="round" stroke-linejoin="round"/>
<path d="M264.699 489.995C264.699 489.995 255.621 496.809 257.012 501.313C258.403 505.817 265.996 496.597 267.882 493.886C269.769 491.174 268.283 487.024 264.699 489.995Z" fill="white" stroke="#263238" stroke-width="1.04742" stroke-linecap="round" stroke-linejoin="round"/>
<path d="M268.259 493.202C268.259 493.202 260.407 498.248 261.728 501.973C263.048 505.699 269.533 498.649 271.16 496.479C272.786 494.31 271.466 490.82 268.259 493.202Z" fill="white" stroke="#263238" stroke-width="1.04742" stroke-linecap="round" stroke-linejoin="round"/>
</svg>
